<?xml version="1.0" encoding="UTF-8" standalone="no"?>
<svg
   xmlns:dc="http://purl.org/dc/elements/1.1/"
   xmlns:cc="http://creativecommons.org/ns#"
   xmlns:rdf="http://www.w3.org/1999/02/22-rdf-syntax-ns#"
   xmlns:svg="http://www.w3.org/2000/svg"
   xmlns="http://www.w3.org/2000/svg"
   viewBox="0 0 427.09332 136.06667"
   height="136.06667"
   width="427.09332"
   xml:space="preserve"
   id="svg2"
   version="1.1"><metadata
     id="metadata8"><rdf:RDF><cc:Work
         rdf:about=""><dc:format>image/svg+xml</dc:format><dc:type
           rdf:resource="http://purl.org/dc/dcmitype/StillImage" /></cc:Work></rdf:RDF></metadata><defs
     id="defs6" /><g
     transform="matrix(1.3333333,0,0,-1.3333333,0,136.06667)"
     id="g10"><g
       transform="scale(0.1)"
       id="g12"><path
         id="path14"
         style="fill:#231f20;fill-opacity:1;fill-rule:nonzero;stroke:none"
         d="m 91.1484,511.762 c 0,116.769 93.0816,164.207 190.9966,164.207 M 463.492,461.691 c -5.707,-19.316 -12.742,-41.699 -40.398,-67.16 -25.02,-22.859 -66.293,-48.75 -145.328,-48.75 -110.207,0 -186.6176,57.512 -186.6176,165.981 0,116.769 93.0816,164.207 190.9966,164.207 35.566,0 128.984,-8.336 170.156,-82.676 L 374.797,568.82 c -8.352,13.184 -33.027,47.36 -93.195,47.36 -70.243,0 -109.661,-46.024 -109.661,-105.305 0,-67.621 53.586,-103.617 112.414,-103.617 67.18,0 87.36,35.117 97.461,54.004 l 81.676,0.429" /><path
         id="path16"
         style="fill:#231f20;fill-opacity:1;fill-rule:nonzero;stroke:none"
         d="m 497.43,666.297 h 77.707 v -119.43 h 183.609 v 119.43 h 77.711 V 356.313 H 758.746 V 489.355 H 575.137 V 356.313 H 497.43 v 309.984" /><path
         id="path18"
         style="fill:#231f20;fill-opacity:1;fill-rule:nonzero;stroke:none"
         d="m 1072.31,571.043 c -2.2,3.937 -3.95,8.309 -5.27,12.273 -1.32,3.965 -2.19,7.907 -2.63,12.301 -1.32,-3.941 -2.2,-7.449 -3.08,-10.984 -1.75,-3.942 -3.08,-7.883 -4.82,-11.848 l -43.27,-93.867 h 100.08 z m -49.18,95.254 h 83.86 l 149.74,-309.984 h -86.94 l -30.75,67.722 H 988.09 L 958.152,356.313 H 873.41 l 149.72,309.984" /><path
         id="path20"
         style="fill:#231f20;fill-opacity:1;fill-rule:nonzero;stroke:none"
         d="m 1296.69,666.297 h 77.71 V 413.398 h 156.55 v -57.085 h -234.26 v 309.984" /><path
         id="path22"
         style="fill:#231f20;fill-opacity:1;fill-rule:nonzero;stroke:none"
         d="m 1577.73,666.297 h 111.96 l 80.8,-189.676 c 8.35,-20.183 11.41,-28.516 15.82,-46.094 3.07,13.188 5.7,21.067 14.47,42.59 l 80.81,193.18 h 111.06 V 356.313 h -73.3 v 216.925 c 0,9.196 1.31,17.125 3.07,28.973 -3.07,-9.223 -4.4,-12.731 -8.79,-23.719 l -92.64,-222.179 h -70.69 l -92.64,217.785 c -4.83,11.871 -5.73,15.382 -9.23,28.113 1.31,-13.188 1.76,-15.813 2.63,-27.656 V 356.313 h -73.33 v 309.984" /><path
         id="path24"
         style="fill:#231f20;fill-opacity:1;fill-rule:nonzero;stroke:none"
         d="m 2064.53,666.297 h 288.92 V 610.543 H 2142.24 V 540.73 h 186.01 v -54.886 h -186.01 v -74.192 h 219.98 v -55.339 h -297.69 v 309.984" /><path
         id="path26"
         style="fill:#231f20;fill-opacity:1;fill-rule:nonzero;stroke:none"
         d="m 2845.27,450.832 c 18.21,-37.004 62.74,-47.637 104.9,-46.902 18.85,0.3 78.06,4.441 77.41,42.183 -0.39,22.375 -21.98,27.309 -38.73,30.051 -12.75,2.434 -76.59,10.996 -91.12,13.367 -28.63,4.746 -100.86,17.125 -102.1,87.348 -0.26,15.379 3.86,31.242 11.53,44.125 25.16,42.133 82.06,54.129 131.24,54.988 45.2,0.781 80,-5.203 112.35,-22.199 31.91,-16.574 45.91,-39.152 52.24,-49.156 l -73.43,-19.727 c -2.72,4.801 -9.07,16.09 -27.68,24.981 -20.8,9.773 -47.62,11.039 -62.54,10.785 -34.24,-0.606 -69.23,-7.809 -68.74,-37.207 0.37,-20.203 18.45,-25.156 41.81,-30.035 12.78,-2.399 76.18,-11.821 90.71,-14.649 36.13,-5.937 97.37,-18.058 98.57,-86.105 1.73,-99.653 -109.91,-105.285 -155.2,-105.91 -50.92,-0.711 -130.27,6.511 -171.58,84.382 l 70.36,19.68" /><path
         id="path28"
         style="fill:#231f20;fill-opacity:1;fill-rule:nonzero;stroke:none"
         d="m 2498.3,535.73 h 123.82 c 16.67,0 46.54,2.196 46.54,36.879 0,6.137 -0.89,16.696 -6.16,24.145 -5.71,7.453 -13.16,14.93 -43.91,14.93 H 2498.3 Z m -77.74,130.415 h 213.4 c 35.11,0 67.18,-3.086 93.09,-32.942 15.79,-18.441 20.18,-41.726 20.18,-59.711 0,-23.719 -7.89,-51.804 -29.84,-68.504 -16.69,-12.73 -38.2,-17.125 -50.49,-19.32 l 93.96,-129.531 h -89.22 l -85.1,124.707 H 2498.3 V 356.137 h -77.74 v 310.008" /></g></g></svg>